<?xml version="1.0" encoding="UTF-8"?>
<svg width="100mm" height="100mm" version="1.1" viewBox="0 0 100 100" xmlns="http://www.w3.org/2000/svg">
 <g fill="#1171b1" stroke="#1171b1">
  <circle transform="rotate(57.8)" cx="57.92" cy="-13.16" r="35.87" fill="none" stroke-width="10.3"/>
  <rect transform="rotate(45)" x="93.71" y="-6.712" width="43.92" height="13.42" ry="6.712" stroke-width=".2767"/>
  <g transform="matrix(5.825 0 0 6.286 -4.892 -13.2)" stroke="none">
   <path d="m8.811 6.091a0.5885 0.5885 0 0 1 0.8333 0l2.354 2.354a0.5885 0.5885 0 0 1 0 0.8333l-2.354 2.354a0.5892 0.5892 0 0 1-0.8333-0.8333l1.938-1.937-1.938-1.937a0.5885 0.5885 0 0 1 0-0.8333zm-1.521 0a0.5885 0.5885 0 0 0-0.8333 0l-2.354 2.354a0.5885 0.5885 0 0 0 0 0.8333l2.354 2.354a0.5892 0.5892 0 0 0 0.8333-0.8333l-1.938-1.937 1.938-1.937a0.5885 0.5885 0 0 0 0-0.8333z" stroke-width="1.177"/>
  </g>
 </g>
</svg>